<svg width="389" height="71" viewBox="0 0 389 71" fill="none" xmlns="http://www.w3.org/2000/svg">
<path d="M366.84 42.6738L377.755 16.3721H388.215L368.205 62.002C367.397 63.8715 366.664 65.362 366.007 66.4736C365.4 67.6358 364.794 68.4949 364.188 69.0508C363.581 69.6572 362.848 70.0615 361.989 70.2637C361.181 70.5163 360.119 70.6426 358.806 70.6426H346.526V62.8359H354.562C355.319 62.8359 355.951 62.7343 356.456 62.5322C356.961 62.3806 357.442 62.0019 357.896 61.3955C358.351 60.7891 358.832 59.8541 359.337 58.5908L361.371 54.1885L345.693 16.3721H356.381L366.84 42.6738ZM239.353 0C245.77 2.83797e-05 251 1.59203 255.042 4.77539C259.135 7.95878 261.687 12.4054 262.697 18.1152H251.783C251.177 15.2351 249.813 12.9861 247.69 11.3691C245.568 9.75221 242.738 8.9444 239.201 8.94434C235.967 8.94434 233.188 9.70193 230.863 11.2178C228.539 12.6832 226.745 14.8058 225.481 17.585C224.218 20.3642 223.587 23.6743 223.587 27.5146C223.587 31.3547 224.218 34.6643 225.481 37.4434C226.745 40.172 228.539 42.2946 230.863 43.8105C233.188 45.2759 235.967 46.0088 239.201 46.0088C242.738 46.0087 245.543 45.2502 247.614 43.7344C249.736 42.2185 251.126 40.0207 251.783 37.1406H262.622C261.662 42.7495 259.135 47.12 255.042 50.2529C251 53.3353 245.77 54.8769 239.353 54.877C234.047 54.877 229.448 53.7397 225.558 51.4658C221.717 49.1414 218.761 45.9328 216.689 41.8398C214.618 37.6964 213.582 32.9213 213.582 27.5146C213.582 22.1078 214.618 17.332 216.689 13.1885C218.761 9.04508 221.717 5.8107 225.558 3.48633C229.448 1.16205 234.047 0 239.353 0ZM325.529 15.4629C331.138 15.4629 335.51 16.8013 338.643 19.4795C341.826 22.1576 343.417 25.9481 343.417 30.8496V39.3389C343.417 41.2588 343.519 42.6735 343.721 43.583C343.973 44.4924 344.352 45.0735 344.857 45.3262C345.363 45.5788 346.045 45.7051 346.904 45.7051H347.207V53.9668H345.085C342.407 53.9668 340.184 53.6136 338.415 52.9062C336.646 52.1988 335.357 50.8091 334.549 48.7373C333.286 50.5058 331.619 51.9716 329.547 53.1338C327.475 54.296 325.05 54.8769 322.271 54.877C319.441 54.877 316.99 54.3719 314.918 53.3613C312.897 52.3507 311.355 50.9856 310.294 49.2676C309.233 47.5496 308.702 45.6546 308.702 43.583C308.702 39.6417 310.118 36.6096 312.947 34.4873C315.777 32.3146 319.491 31.2286 324.089 31.2285C326.262 31.2285 328.132 31.3794 329.698 31.6826C331.264 31.9858 332.553 32.3143 333.563 32.668V30.8496C333.563 28.222 332.806 26.3016 331.29 25.0889C329.825 23.8761 327.904 23.2695 325.529 23.2695C323.862 23.2696 322.371 23.6237 321.058 24.3311C319.744 24.988 318.91 26.1755 318.557 27.8936H309.233C309.537 25.2154 310.446 22.9666 311.962 21.1475C313.478 19.2778 315.398 17.8624 317.723 16.9023C320.097 15.9424 322.7 15.4629 325.529 15.4629ZM179.114 41.1162L195.733 0.910156H207.482V53.9668H197.629V18.9971L182.924 53.9668H175.041L160.261 18.9639V53.9668H150.407V0.910156H162.231L179.114 41.1162ZM288.475 0.910156C292.719 0.910177 296.231 1.61745 299.01 3.03223C301.789 4.44708 303.861 6.39218 305.226 8.86816C306.64 11.3442 307.348 14.1493 307.348 17.2822C307.348 20.1118 306.665 22.7644 305.301 25.2402C303.987 27.7162 301.941 29.7126 299.162 31.2285C296.383 32.7444 292.82 33.5019 288.475 33.502H278.545V53.9668H268.691V0.910156H288.475ZM325.15 37.7471C323.18 37.7471 321.588 38.2018 320.375 39.1113C319.213 39.9703 318.632 41.1829 318.632 42.749C318.632 44.1132 319.137 45.225 320.147 46.084C321.209 46.943 322.65 47.373 324.469 47.373C326.086 47.373 327.45 47.0189 328.562 46.3115C329.724 45.5536 330.684 44.5433 331.441 43.2803C332.199 41.9665 332.73 40.5511 333.033 39.0352C331.972 38.732 330.734 38.4538 329.319 38.2012C327.955 37.898 326.565 37.7471 325.15 37.7471ZM278.545 25.5439H287.868C291.203 25.5439 293.603 24.8109 295.068 23.3457C296.584 21.8299 297.343 19.8086 297.343 17.2822C297.343 14.6546 296.584 12.608 295.068 11.1426C293.603 9.6772 291.203 8.94435 287.868 8.94434H278.545V25.5439Z" fill="white"/>
<g clip-path="url(#clip0_1429_23667)">
<path d="M111.162 28.5955C107.207 28.5709 103.25 28.536 99.2962 28.6227C97.8963 28.6534 97.4931 28.2399 97.5148 26.8264C97.6 21.2912 97.5155 15.7535 97.5764 10.2177C97.5907 8.91935 97.2352 8.44954 95.8785 8.49179C92.8706 8.58543 89.8603 8.58623 86.8477 8.49418C85.6012 8.4581 84.7619 8.91167 83.9186 9.762C78.246 15.4824 72.5473 21.1769 66.8226 26.8457C66.5211 27.1454 66.3162 27.7953 65.7632 27.581C65.2001 27.3628 65.4835 26.7461 65.482 26.3171C65.4637 21.0162 65.4143 15.7142 65.5109 10.415C65.5389 8.87887 64.9809 8.47485 63.5711 8.50603C60.6207 8.57121 57.6692 8.57151 54.7164 8.50693C54.2853 8.49383 53.8547 8.547 53.4398 8.66457C52.4769 8.74459 51.5831 9.19613 50.9481 9.92337C45.2755 15.6437 39.5768 21.3383 33.852 27.0071C33.5505 27.3068 33.3456 27.9567 32.7927 27.7424C32.2296 27.5242 32.513 26.9075 32.5115 26.4785C32.4932 21.1776 32.4438 15.8756 32.5404 10.5764C32.5684 9.04027 32.0104 8.63626 30.6006 8.66741C27.6502 8.73261 24.6986 8.73291 21.7459 8.66831C21.1608 8.64483 20.5777 8.75091 20.0384 8.97896C19.4992 9.20701 19.0172 9.55139 18.6269 9.98737C14.9085 13.7605 11.1598 17.5038 7.38082 21.2173C5.00412 23.5596 2.57065 25.8446 0 28.3113C1.11961 28.9328 1.78515 28.7781 2.41853 28.7813C6.25581 28.8005 10.0933 28.7889 13.9307 28.7859C16.292 28.784 16.2909 28.7826 16.2894 31.2227C16.2863 36.5236 16.317 41.825 16.2582 47.1253C16.2443 48.382 16.5378 48.9366 17.9208 48.9014C21.0475 48.8218 24.1783 48.8594 27.3067 48.9053C27.7466 48.9124 28.1828 48.8243 28.5854 48.647C28.9879 48.4698 29.3472 48.2075 29.6386 47.8784C35.4603 42.046 41.2922 36.2238 47.1342 30.4116C47.3999 30.1471 47.5569 29.5681 48.0535 29.7548C48.6392 29.9751 48.3778 30.5634 48.3787 30.9998C48.3902 36.3593 48.4387 41.7197 48.3552 47.078C48.3329 48.5073 48.8169 48.9388 50.171 48.913C53.2397 48.8543 56.3106 48.868 59.3799 48.9085C59.7774 48.9187 60.1737 48.8596 60.5508 48.7338C61.3424 48.672 62.0796 48.3078 62.6092 47.717C68.4309 41.8847 74.2627 36.0624 80.1047 30.2502C80.3704 29.9858 80.5275 29.4067 81.024 29.5934C81.6098 29.8137 81.3483 30.4021 81.3492 30.8384C81.3608 36.198 81.4092 41.5583 81.3258 46.9166C81.3035 48.3459 81.7874 48.7774 83.1415 48.7516C86.2102 48.693 89.2812 48.7066 92.3504 48.7472C92.8172 48.7669 93.2825 48.6838 93.7136 48.5039C94.1446 48.324 94.5308 48.0517 94.8447 47.7062C99.2736 43.2338 103.729 38.7875 108.21 34.3671C109.989 32.6066 111.821 30.9 113.695 29.1051C112.683 28.3711 111.893 28.6 111.162 28.5955Z" fill="white"/>
</g>
<defs>
<clipPath id="clip0_1429_23667">
<rect width="113.695" height="40.4248" fill="white" transform="translate(0 8.4892)"/>
</clipPath>
</defs>
</svg>
