<svg width="148" height="27" viewBox="0 0 148 27" fill="none" xmlns="http://www.w3.org/2000/svg">
<path d="M139.381 15.8281L143.412 6.1123H147.276L139.885 22.9678C139.586 23.6584 139.315 24.2095 139.072 24.6201C138.848 25.0494 138.624 25.367 138.4 25.5723C138.177 25.7961 137.906 25.9448 137.589 26.0195C137.29 26.1129 136.897 26.1602 136.412 26.1602H131.877V23.2764H134.845C135.125 23.2763 135.358 23.2387 135.545 23.1641C135.731 23.108 135.908 22.9678 136.076 22.7441C136.244 22.5201 136.422 22.1747 136.608 21.708L137.359 20.082L131.568 6.1123H135.517L139.381 15.8281ZM92.2852 0.0644531C94.6558 0.0644582 96.5877 0.652131 98.0811 1.82812C99.593 3.0041 100.536 4.64659 100.909 6.75586H96.877C96.6529 5.69194 96.1492 4.86097 95.3652 4.26367C94.5813 3.66644 93.5359 3.36822 92.2295 3.36816C91.0349 3.36816 90.008 3.64809 89.1494 4.20801C88.2908 4.74928 87.6278 5.53308 87.1611 6.55957C86.6945 7.58613 86.461 8.80907 86.4609 10.2275C86.4609 11.6462 86.6945 12.8698 87.1611 13.8965C87.6278 14.9043 88.2909 15.6881 89.1494 16.248C90.008 16.7893 91.0349 17.0596 92.2295 17.0596C93.536 17.0595 94.5717 16.7797 95.3369 16.2197C96.1209 15.6598 96.6343 14.8481 96.877 13.7842H100.881C100.526 15.8561 99.593 17.4706 98.0811 18.6279C96.5877 19.7666 94.6558 20.3359 92.2852 20.3359C90.3253 20.3359 88.6267 19.916 87.1895 19.0762C85.7708 18.2175 84.6784 17.0315 83.9131 15.5195C83.1479 13.989 82.7646 12.2247 82.7646 10.2275C82.7647 8.23039 83.1478 6.4661 83.9131 4.93555C84.6784 3.40505 85.7709 2.21016 87.1895 1.35156C88.6267 0.493069 90.3254 0.0644531 92.2852 0.0644531ZM124.12 5.77637C126.192 5.77642 127.807 6.27053 128.964 7.25977C130.14 8.24909 130.728 9.64931 130.728 11.46V14.5957C130.728 15.305 130.765 15.8281 130.84 16.1641C130.933 16.4999 131.073 16.7142 131.26 16.8076C131.446 16.9009 131.698 16.9482 132.016 16.9482H132.128V20H131.344C130.355 20 129.533 19.8697 128.88 19.6084C128.227 19.3471 127.751 18.8335 127.452 18.0684C126.985 18.7217 126.369 19.2631 125.604 19.6924C124.838 20.1215 123.942 20.3359 122.916 20.3359C121.871 20.3359 120.965 20.1496 120.2 19.7764C119.454 19.403 118.884 18.8983 118.492 18.2637C118.1 17.629 117.904 16.9293 117.904 16.1641C117.904 14.7081 118.426 13.5877 119.472 12.8037C120.517 12.0011 121.889 11.5996 123.588 11.5996C124.391 11.5996 125.082 11.6556 125.66 11.7676C126.239 11.8796 126.715 12.0012 127.088 12.1318V11.46C127.088 10.4894 126.808 9.78003 126.248 9.33203C125.707 8.88408 124.997 8.66021 124.12 8.66016C123.504 8.66016 122.953 8.79045 122.468 9.05176C121.982 9.29442 121.675 9.7335 121.544 10.3682H118.1C118.212 9.37892 118.548 8.54795 119.107 7.87598C119.667 7.18538 120.377 6.66228 121.235 6.30762C122.113 5.95295 123.075 5.77637 124.12 5.77637ZM70.0322 15.2529L76.1719 0.400391H80.5117V20H76.8721V7.08105L71.4404 20H68.5283L63.0684 7.07031V20H59.4277V0.400391H63.7959L70.0322 15.2529ZM110.432 0.400391C111.999 0.400427 113.297 0.661038 114.323 1.18359C115.35 1.70622 116.115 2.42527 116.619 3.33984C117.142 4.25451 117.403 5.29091 117.403 6.44824C117.403 7.49337 117.151 8.47318 116.647 9.3877C116.162 10.3024 115.406 11.0396 114.379 11.5996C113.352 12.1595 112.037 12.4404 110.432 12.4404H106.764V20H103.123V0.400391H110.432ZM123.979 14.0078C123.252 14.0079 122.664 14.1758 122.216 14.5117C121.786 14.8291 121.572 15.2778 121.572 15.8564C121.572 16.3602 121.759 16.7707 122.132 17.0879C122.524 17.4052 123.056 17.5644 123.728 17.5645C124.325 17.5645 124.83 17.4332 125.24 17.1719C125.669 16.8919 126.024 16.5183 126.304 16.0518C126.584 15.5666 126.78 15.0442 126.892 14.4844C126.5 14.3724 126.042 14.2691 125.52 14.1758C125.016 14.0638 124.502 14.0078 123.979 14.0078ZM106.764 9.5H110.207C111.439 9.5 112.326 9.22961 112.867 8.68848C113.427 8.12853 113.707 7.38146 113.707 6.44824C113.707 5.47758 113.427 4.72102 112.867 4.17969C112.326 3.6385 111.439 3.36816 110.207 3.36816H106.764V9.5Z" fill="black"/>
<g clip-path="url(#clip0_1405_65)">
<path d="M43.9975 11.958C42.432 11.9483 40.8659 11.9345 39.3011 11.9688C38.747 11.9809 38.5874 11.8173 38.596 11.2578C38.6298 9.06699 38.5963 6.87519 38.6204 4.68413C38.6261 4.17027 38.4854 3.98432 37.9484 4.00104C36.7579 4.0381 35.5664 4.03842 34.374 4.00199C33.8806 3.98771 33.5485 4.16723 33.2147 4.50378C30.9695 6.76788 28.714 9.02178 26.4482 11.2655C26.3288 11.3841 26.2477 11.6413 26.0289 11.5565C25.806 11.4701 25.9181 11.226 25.9176 11.0562C25.9103 8.95818 25.8908 6.85966 25.929 4.76226C25.9401 4.15425 25.7192 3.99434 25.1612 4.00668C23.9935 4.03248 22.8253 4.03259 21.6566 4.00703C21.4859 4.00185 21.3155 4.02289 21.1513 4.06943C20.7702 4.1011 20.4164 4.27982 20.1651 4.56766C17.9199 6.83175 15.6644 9.08565 13.3985 11.3293C13.2792 11.448 13.1981 11.7052 12.9792 11.6204C12.7564 11.534 12.8685 11.2899 12.8679 11.1201C12.8607 9.02205 12.8411 6.92354 12.8794 4.82613C12.8905 4.21813 12.6696 4.05822 12.1116 4.07055C10.9438 4.09636 9.77562 4.09647 8.60695 4.07091C8.37536 4.06162 8.14457 4.1036 7.93114 4.19386C7.71771 4.28412 7.52693 4.42043 7.37245 4.59299C5.90072 6.08637 4.41701 7.56797 2.9213 9.03777C1.98062 9.96483 1.01745 10.8692 0 11.8456C0.443139 12.0915 0.706558 12.0303 0.957247 12.0315C2.47603 12.0392 3.99489 12.0346 5.51373 12.0334C6.44831 12.0326 6.44787 12.0321 6.44729 12.9979C6.44607 15.096 6.45821 17.1942 6.43495 19.292C6.42944 19.7895 6.5456 20.009 7.09298 19.995C8.33055 19.9635 9.56971 19.9784 10.8079 19.9966C10.982 19.9994 11.1547 19.9645 11.314 19.8944C11.4733 19.8242 11.6155 19.7204 11.7309 19.5901C14.0351 17.2817 16.3433 14.9773 18.6555 12.6768C18.7607 12.5721 18.8229 12.343 19.0194 12.4169C19.2513 12.504 19.1478 12.7369 19.1481 12.9096C19.1527 15.0309 19.1719 17.1525 19.1388 19.2733C19.13 19.8391 19.3216 20.0098 19.8575 19.9996C21.0721 19.9764 22.2875 19.9818 23.5024 19.9979C23.6597 20.0019 23.8165 19.9785 23.9658 19.9287C24.2791 19.9042 24.5709 19.7601 24.7805 19.5263C27.0847 17.2178 29.3929 14.9134 31.7052 12.613C31.8103 12.5083 31.8725 12.2791 32.069 12.353C32.3009 12.4402 32.1974 12.6731 32.1978 12.8458C32.2023 14.9671 32.2215 17.0887 32.1885 19.2095C32.1797 19.7752 32.3712 19.946 32.9071 19.9357C34.1217 19.9125 35.3372 19.9179 36.552 19.934C36.7367 19.9418 36.9209 19.9089 37.0915 19.8377C37.2621 19.7665 37.415 19.6587 37.5392 19.522C39.2921 17.7518 41.0555 15.992 42.8293 14.2424C43.5332 13.5456 44.2582 12.8701 45 12.1597C44.5997 11.8692 44.287 11.9598 43.9975 11.958Z" fill="black"/>
</g>
<defs>
<clipPath id="clip0_1405_65">
<rect width="45" height="16" fill="white" transform="translate(0 4)"/>
</clipPath>
</defs>
</svg>
