<?xml version="1.0" encoding="utf-8"?>
<!-- Generator: Adobe Illustrator 25.4.1, SVG Export Plug-In . SVG Version: 6.00 Build 0)  -->
<svg version="1.1" id="Layer_1" xmlns="http://www.w3.org/2000/svg" xmlns:xlink="http://www.w3.org/1999/xlink" x="0px" y="0px"
	 viewBox="0 0 24 24" style="enable-background:new 0 0 24 24;" xml:space="preserve">
<g>
	<path d="M9.1,22.8c0,0.4-0.3,0.6-0.6,0.5c-4.7-1.5-8.1-5.9-8.1-11.1C0.4,6.9,3.8,2.5,8.5,1c0.4-0.1,0.6,0.1,0.6,0.5v0.9
		c0,0.2-0.2,0.5-0.4,0.6C5,4.4,2.3,7.9,2.3,12.1c0,4.2,2.7,7.8,6.4,9.1c0.2,0.1,0.4,0.4,0.4,0.6V22.8z"/>
	<path d="M13,19.4c0,0.3-0.2,0.5-0.5,0.5h-1c-0.3,0-0.5-0.2-0.5-0.5v-1.5c-2.1-0.3-3.2-1.5-3.4-3.1c0-0.3,0.2-0.5,0.4-0.5h1.1
		c0.2,0,0.4,0.2,0.5,0.4c0.2,1,0.8,1.7,2.5,1.7c1.3,0,2.1-0.7,2.1-1.7c0-1-0.5-1.4-2.4-1.7c-2.7-0.4-4-1.2-4-3.3
		c0-1.6,1.2-2.9,3.2-3.2V4.8c0-0.3,0.2-0.5,0.5-0.5h1c0.3,0,0.5,0.2,0.5,0.5v1.5c1.6,0.3,2.6,1.2,2.9,2.6c0.1,0.3-0.2,0.5-0.4,0.5
		h-1c-0.2,0-0.4-0.1-0.5-0.4c-0.3-0.9-0.9-1.3-2.1-1.3c-1.3,0-2,0.6-2,1.5c0,0.9,0.4,1.4,2.3,1.7c2.7,0.4,4,1.1,4,3.4
		c0,1.7-1.3,3.1-3.3,3.4V19.4z"/>
	<path d="M15.5,23.2c-0.4,0.1-0.6-0.1-0.6-0.5v-0.9c0-0.3,0.2-0.5,0.4-0.6c3.7-1.4,6.4-4.9,6.4-9.1c0-4.2-2.7-7.8-6.4-9.1
		c-0.2-0.1-0.4-0.4-0.4-0.6V1.5c0-0.4,0.3-0.6,0.6-0.5c4.7,1.5,8.1,5.9,8.1,11.1C23.6,17.3,20.2,21.7,15.5,23.2z"/>
</g>
</svg>
