<svg width="240" height="83" viewBox="0 0 240 83" fill="none" xmlns="http://www.w3.org/2000/svg">
<path fill-rule="evenodd" clip-rule="evenodd" d="M18.75 18.75L44.5313 63.2812L58.597 38.9859L54.5179 36.6374L49.3223 45.6116L36.4804 23.4301L62.1642 23.4301L56.8682 32.5779L60.9472 34.9264L70.3125 18.75L18.75 18.75Z" fill="#915BF8"/>
<path fill-rule="evenodd" clip-rule="evenodd" d="M110.633 23.9063V53.9063H117.188V18.75H110.633H107.812V23.9063H110.633ZM140.216 53.9102V48.5347C140.006 49.1945 139.74 49.7978 139.416 50.3446C137.835 53.1417 135.015 53.9102 131.953 53.9102C130.103 53.9102 128.442 53.6257 127.031 52.9688C125.652 52.3118 124.633 51.5176 123.849 50.2976C123.097 49.0776 122.72 47.6074 122.72 45.8869C122.72 44.01 123.175 42.4772 124.084 41.2885C125.025 40.0998 126.326 39.2083 127.988 38.6139C129.681 38.0196 131.656 37.7224 133.914 37.7224H139.134V37.4878C139.134 36.0175 138.774 35.3914 138.052 34.6719C137.331 33.9524 136.218 33.5927 134.713 33.5927C133.929 33.5927 132.989 33.6083 131.891 33.6396C130.794 33.6709 129.681 33.7178 128.552 33.7804C127.455 33.8117 126.467 33.8586 125.589 33.9212V28.3843C126.31 28.3217 127.126 28.2592 128.035 28.1966C129.567 28.0912 131.1 28.096 132.634 28.1008C132.954 28.1018 133.274 28.1028 133.594 28.1028C136.228 28.1028 138.35 28.3999 140.075 29.0881C141.831 29.7763 143.148 30.8556 144.025 32.3258C144.935 33.796 145.389 35.7199 145.389 38.0973V53.9102H140.216ZM139.134 41.6169V44.01C139.071 45.3864 138.774 46.4813 138.241 47.2946C137.739 48.0766 137.096 48.6397 136.312 48.9838C135.56 49.2966 134.729 49.453 133.82 49.453C132.315 49.453 131.155 49.0933 130.339 48.3738C129.556 47.6543 129.164 46.7159 129.164 45.5584C129.164 44.401 129.556 43.4626 130.339 42.7431C131.155 41.9923 132.315 41.6169 133.82 41.6169H139.134ZM183.469 29.1911C184.979 28.4792 186.722 28.125 188.695 28.125C191.285 28.125 193.458 28.7004 195.207 29.8587C196.98 30.9841 198.31 32.4808 199.197 34.3474C200.082 36.1813 200.525 38.1628 200.525 40.2901V42.6049H182.631C182.739 43.4671 182.939 44.2638 183.231 44.9957C183.69 46.1189 184.393 47.0091 185.338 47.6698C186.279 48.2983 187.483 48.617 188.958 48.617C190.435 48.617 191.625 48.3268 192.537 47.7559C193.454 47.152 194.033 46.4252 194.287 45.5776L194.312 45.4948H200.157L200.127 45.6352C199.773 47.2936 199.093 48.747 198.086 49.9934C197.079 51.2401 195.791 52.2039 194.225 52.8851C192.687 53.5669 190.931 53.9062 188.958 53.9062C186.897 53.9062 185.082 53.5522 183.514 52.8405L183.513 52.8401C181.978 52.1302 180.693 51.1826 179.657 49.9968L179.655 49.9944C178.652 48.7822 177.885 47.4365 177.354 45.958L177.354 45.9561C176.852 44.4784 176.602 42.9707 176.602 41.4334V40.5979C176.602 39.0024 176.852 37.4653 177.354 35.9873L177.354 35.986C177.885 34.4777 178.653 33.1456 179.657 31.9907C180.692 30.8051 181.964 29.8718 183.469 29.1911ZM188.695 33.4143C187.367 33.4143 186.25 33.7178 185.337 34.3186C184.422 34.9199 183.72 35.7945 183.23 36.9487C183.02 37.4615 182.858 38.0234 182.743 38.6348H194.449C194.341 37.935 194.171 37.2995 193.939 36.7277C193.509 35.6632 192.851 34.8474 191.966 34.2752L191.964 34.2742C191.111 33.7037 190.023 33.4143 188.695 33.4143ZM205.758 28.125V53.9062H212.352V40.5528C212.352 38.3374 212.952 36.6524 214.154 35.4979C215.387 34.3121 217.111 33.7193 219.324 33.7193H221.25V28.125H220.178C217.111 28.125 214.787 28.9919 213.205 30.8641C212.012 32.2778 211.268 34.1983 210.976 36.6259V28.125H205.758ZM150.933 57.6563V63.2813H155.156C157.269 63.2813 159.024 62.9834 160.443 62.4799C161.894 61.9764 163.077 61.1425 163.991 59.9782C164.906 58.8453 165.616 57.3191 166.12 55.3995L173.906 28.125H167.578L162.261 48.3125H161.266L154.922 28.125H148.359L156.797 53.9063H160.781C160.563 54.815 160.202 55.3574 159.591 56.1075C158.706 57.2622 157.153 57.6563 155.759 57.6563H150.933ZM79.6875 28.125L87.8067 53.9062H98.4375L105.469 28.125H99.1406L93.7694 48.4748H92.6437L86.3619 28.125H79.6875Z" fill="black"/>
</svg>
