<svg width="771" height="243" viewBox="0 0 771 243" fill="none" xmlns="http://www.w3.org/2000/svg">
<path d="M0.198371 91.5004C0.198371 78.8004 -0.201654 66.2004 0.298346 53.5004C0.798346 40.6004 8.29835 29.2004 21.2983 24.7004C32.0983 21.0004 42.7984 16.9004 53.6984 13.2004C62.4984 10.2004 71.3983 7.8004 80.0983 4.7004C89.6983 1.3004 99.4984 -0.0995977 109.498 1.2004C115.298 2.0004 120.998 3.6004 126.598 5.2004C134.898 7.6004 143.198 10.3004 151.498 13.0004C157.298 14.9004 163.098 16.9004 168.798 19.0004C175.698 21.5004 182.798 23.8004 189.398 27.0004C196.998 30.6004 202.098 37.0004 203.998 45.2004C205.198 50.2004 205.898 55.5004 205.898 60.7004C206.098 81.9004 206.098 103.2 205.798 124.4C205.698 132.2 204.398 140 202.398 147.7C197.298 167.2 187.098 183.6 173.298 198C158.898 213 141.698 224.4 123.898 234.8C119.798 237.2 115.498 239.3 111.098 241.1C103.798 244.2 96.4983 243 89.7983 239.3C73.9983 230.6 58.6984 221 44.8984 209.4C28.0984 195.3 14.7984 178.6 6.99836 157.9C2.69836 146.7 0.198371 135.1 0.198371 123.1C0.198371 112.6 0.198371 102.1 0.198371 91.6004C0.0983706 91.5004 0.0983706 91.5004 0.198371 91.5004ZM121.098 103.8C121.698 102.3 120.098 103.2 122.098 103.8C124.098 104.4 123.698 107.4 123.798 109.2C124.298 116 122.598 122.3 118.398 127.8C116.498 130.4 114.398 133.1 114.998 136.6C115.698 140.5 116.798 143.5 120.798 144.4C123.898 145.1 126.598 144.4 128.598 141.8C134.298 134.3 138.198 125.8 138.798 116.4C139.198 110.7 138.698 104.8 137.798 99.1004C136.698 92.4004 134.198 86.1004 129.498 81.1004C125.598 77.0004 119.698 75.8004 115.598 81.8004C112.798 86.0004 109.998 90.2004 107.498 94.6004C105.098 98.8004 98.5983 100.5 95.0983 94.9004C91.8983 89.9004 88.5984 84.9004 84.9984 80.2004C79.1984 72.5004 73.2983 65.0004 67.0983 57.6004C61.9983 51.6004 55.2983 50.5004 48.0983 53.1004C46.0983 53.8004 44.3984 55.5004 42.8984 57.1004C40.3984 59.9004 40.1984 63.6004 40.1984 67.2004C40.0984 81.8004 40.0984 96.3004 40.1984 110.9C40.2984 125.7 40.5984 140.5 40.8984 155.3C40.8984 156.9 41.0983 158.7 41.7983 160.1C44.3983 165.6 48.8984 168.2 54.9984 168C58.8984 167.9 58.8984 168 58.8984 164C58.8984 138.5 58.8984 113.1 58.8984 87.6004C58.8984 84.5004 59.9983 83.7004 62.5983 85.5004C64.5983 86.9004 66.3984 88.7004 67.8984 90.6004C73.3984 98.1004 78.5984 105.7 84.1984 113.2C87.5984 117.8 91.1984 122.2 94.9984 126.5C97.3984 129.2 103.298 130 106.098 125.9C107.598 123.7 109.398 121.5 110.898 119.3C114.298 114.2 120.498 105.3 121.098 103.8ZM172.198 106.8C171.698 93.1004 168.298 80.3004 161.598 68.4004C158.598 63.1004 154.898 58.2004 150.998 53.5004C148.098 50.0004 142.798 50.0004 139.898 52.8004C136.898 55.6004 136.998 60.7004 139.998 64.3004C147.898 73.8004 153.398 84.6004 155.798 96.8004C157.498 105.2 157.498 113.7 156.198 122.3C154.698 131.9 150.898 140.3 145.498 148.2C143.198 151.5 140.498 154.4 138.598 157.9C136.498 161.8 137.798 166.4 142.798 167.3C145.498 167.8 148.098 167.4 149.998 165.5C153.498 161.8 157.198 158.1 159.998 153.9C169.498 139.6 172.798 123.7 172.198 106.8Z" fill="#012947"/>
<path d="M309.798 110.3C311.698 106.8 313.298 103.8 314.998 100.8C322.198 87.2 329.398 73.7 336.598 60.1C338.398 56.7 340.298 53.3 341.998 49.8C342.698 48.5 343.598 47.9 345.098 48C352.098 48.1 359.098 48.1 366.098 48C367.998 48 368.798 48.5 368.798 50.5C368.798 88.6 368.798 126.7 368.798 164.9C368.798 166.8 368.098 167.3 366.298 167.3C360.698 167.2 355.098 167.2 349.598 167.3C347.498 167.3 346.898 166.6 346.998 164.6C347.098 139.3 347.098 114 347.098 88.7C347.098 87.9 346.998 87.2 346.398 86.3C342.298 93.7 338.198 101.1 334.098 108.5C328.098 119.5 322.298 130.5 316.198 141.4C315.798 142.2 314.498 142.8 313.598 143C311.998 143.3 310.198 142.9 308.598 143.1C305.198 143.7 303.598 142 302.098 139.2C292.798 122.3 283.398 105.4 273.998 88.5C273.698 87.9 273.098 87.4 272.198 86.4C272.198 88 272.198 89 272.198 89.9C272.298 114.8 272.298 139.7 272.498 164.6C272.498 167 271.798 167.6 269.498 167.5C264.198 167.3 258.798 167.3 253.498 167.5C251.198 167.6 250.898 166.7 250.898 164.8C250.998 153.4 250.898 142 250.898 130.6C250.898 104.1 250.898 77.7 250.898 51.2C250.898 48.9 251.398 48 253.898 48.1C260.698 48.3 267.598 48.2 274.398 48.1C276.298 48.1 277.398 48.7 278.198 50.4C288.298 69.7 298.398 88.8999 308.498 108.1C308.698 108.5 309.098 109 309.798 110.3Z" fill="#012947"/>
<path d="M520.995 126.701C520.995 128.101 520.995 129.001 520.995 129.901C520.995 141.501 520.995 153.201 520.995 164.801C520.995 166.701 520.295 167.301 518.595 167.301C512.295 167.201 505.895 167.201 499.595 167.301C497.695 167.301 497.195 166.501 497.195 164.701C497.195 126.701 497.195 88.6007 497.195 50.6007C497.195 48.7007 497.795 47.9007 499.795 47.9007C514.695 48.0007 529.595 47.7007 544.495 48.0007C552.895 48.2007 561.095 49.9007 568.495 54.4007C577.195 59.7007 582.795 67.2007 585.095 77.1007C587.495 87.7007 586.495 98.0007 581.095 107.601C577.095 114.801 570.995 119.501 563.595 122.701C556.695 125.701 549.495 126.901 541.995 126.701C535.995 126.601 529.995 126.701 523.995 126.601C523.095 126.701 522.195 126.701 520.995 126.701ZM520.995 87.5007C520.995 93.2007 521.095 98.8007 520.895 104.501C520.795 106.901 521.695 107.501 523.895 107.501C527.895 107.401 531.895 107.501 535.895 107.401C541.695 107.301 547.595 106.901 552.995 104.601C561.095 101.101 564.795 89.9007 561.795 81.1007C559.095 73.5007 553.595 69.7007 546.195 69.0007C538.695 68.2007 531.095 68.4007 523.595 68.1007C521.495 68.0007 520.995 68.8007 521.095 70.7007C520.995 76.2007 520.995 81.9007 520.995 87.5007Z" fill="#012947"/>
<path d="M441.296 169.1C416.896 168.4 398.696 157.4 387.596 135.5C382.496 125.5 381.296 114.6 381.696 103.3C381.996 95.0002 383.596 87.2002 387.096 79.7002C393.396 66.2002 403.396 56.3002 417.196 50.5002C421.496 48.7002 426.196 47.7002 430.796 46.8002C434.296 46.1002 437.896 45.9002 441.396 45.9002C455.196 45.8002 467.796 50.0002 478.996 57.9002C484.196 61.6002 483.996 59.9002 480.896 66.4002C478.896 70.5002 476.596 74.4002 474.496 78.5002C473.596 80.2002 472.896 80.2002 471.496 79.0002C462.696 71.1002 452.596 67.3002 440.596 67.6002C431.596 67.8002 423.896 70.6002 417.396 76.8002C411.296 82.6002 407.796 89.8002 406.296 97.9002C404.896 105.4 405.196 112.9 406.896 120.4C410.496 135.7 422.896 146.3 438.696 147.7C450.596 148.7 461.196 145.8 470.396 138.1C472.696 136.2 473.096 136.4 474.796 138.8C477.596 142.9 480.496 146.9 483.396 150.9C484.696 152.7 484.596 153.6 482.796 155.1C477.096 159.7 470.896 163.3 464.096 165.6C456.796 167.9 449.196 169.5 441.296 169.1Z" fill="#012947"/>
<path d="M770.995 76.9006C767.795 85.7006 764.695 94.1006 761.595 102.501C758.295 111.301 755.095 120.201 751.795 129.001C749.195 135.901 746.495 142.701 743.895 149.601C740.295 159.001 736.795 168.501 732.895 177.801C728.595 188.001 721.795 195.901 711.395 200.301C706.795 202.201 701.995 203.001 697.095 202.801C693.595 202.601 689.995 202.201 686.495 201.701C685.895 201.601 684.895 200.701 684.995 200.201C685.195 194.401 685.495 188.601 685.895 182.801C685.895 182.601 686.195 182.401 686.195 182.401C689.295 182.701 692.195 183.001 695.195 183.101C703.895 183.501 710.195 177.201 713.295 170.301C714.995 166.401 713.195 163.501 711.895 160.401C707.095 148.401 702.095 136.601 697.095 124.701C691.995 112.601 686.695 100.601 681.495 88.6006C680.195 85.6006 678.895 82.5006 677.595 79.5006C677.295 78.8006 677.095 78.0006 676.695 76.8006C678.195 76.8006 679.395 76.8006 680.495 76.8006C686.595 76.8006 692.695 76.9006 698.695 76.8006C700.495 76.8006 701.195 77.5006 701.795 79.0006C704.895 86.9006 707.895 94.9006 710.995 102.801C714.895 112.901 718.795 122.901 722.695 133.001C723.195 134.401 723.695 135.801 724.295 137.201C724.495 137.601 724.995 137.901 725.395 138.001C725.595 138.001 725.995 137.501 726.095 137.201C729.195 128.501 732.095 119.701 735.195 111.001C738.395 101.901 741.595 92.8006 744.895 83.7006C745.295 82.6006 745.895 81.6006 745.995 80.4006C746.395 77.3006 748.195 76.7006 750.995 76.8006C756.695 77.0006 762.495 76.8006 768.195 76.9006C768.895 76.7006 769.695 76.8006 770.995 76.9006Z" fill="#012947"/>
<path d="M605.201 102.801C604.701 102.201 604.201 101.701 603.901 101.201C601.601 97.3007 599.401 93.3007 597.201 89.3007C596.301 87.8007 596.901 86.7007 598.301 85.8007C604.701 81.4007 611.501 78.0007 619.301 76.6007C625.501 75.5007 631.801 74.4007 638.101 75.1007C645.401 75.8007 652.601 77.1007 658.901 81.2007C667.601 86.8007 671.301 95.3007 671.401 105.301C671.701 125.101 671.501 144.901 671.601 164.701C671.601 166.601 671.101 167.501 668.901 167.401C663.301 167.201 657.701 167.301 652.201 167.401C650.301 167.401 649.701 166.901 649.801 165.001C649.901 162.301 649.801 159.601 649.801 156.501C649.101 156.901 648.501 157.001 648.301 157.301C643.001 165.701 634.601 168.101 625.501 168.801C617.601 169.401 609.801 168.901 602.801 164.701C596.401 160.901 592.901 155.101 591.101 147.901C589.201 139.901 590.801 132.601 595.201 125.901C598.701 120.501 604.001 117.601 610.001 115.801C619.501 112.901 629.201 112.101 639.001 111.601C641.901 111.501 644.801 111.101 647.601 110.601C648.401 110.401 649.601 109.101 649.601 108.301C649.201 102.001 646.201 95.5007 638.201 93.7007C632.301 92.3007 626.601 93.0007 620.901 94.5007C614.901 96.0007 610.001 99.2007 605.201 102.801ZM627.601 150.901C632.901 151.501 637.801 149.901 642.201 146.501C648.701 141.401 650.501 134.401 649.801 126.601C649.701 126.001 648.401 124.901 647.701 124.901C645.601 124.901 643.601 125.501 641.601 125.701C634.601 126.701 627.401 126.601 620.501 128.801C611.101 131.901 611.201 142.901 616.001 147.601C619.201 150.801 623.101 151.101 627.601 150.901Z" fill="#012947"/>
<path d="M113.195 118.8C107.495 125.8 104.695 129.3 101.695 129.6C96.5953 130.1 92.2953 124.201 84.2953 113.201C74.9953 100.501 70.4953 94.0005 68.8953 91.8005C67.6953 90.1005 66.2953 88.5005 64.6953 87.1005C60.6953 83.5005 59.0953 83.7005 59.0953 87.6005C59.0953 113.101 59.0953 138.501 59.0953 164.001C59.0953 167.901 59.0953 167.901 55.1953 168.001C49.0953 168.201 44.5953 165.6 41.9953 160.1C41.2953 158.7 41.0953 156.9 41.0953 155.3C40.7953 140.5 40.4953 125.701 40.3953 110.901C40.2953 96.3005 40.2953 81.8005 40.3953 67.2005C40.3953 63.6005 40.5953 60.0005 43.0953 57.1005C44.4953 55.5005 46.2953 53.8005 48.2953 53.1005C55.4953 50.5005 62.1953 51.5005 67.2953 57.6005C74.7953 66.5005 81.8953 75.8005 88.8953 85.2005C91.1953 88.2005 93.0953 91.5005 95.0953 94.7005C98.5953 100.501 105.195 98.9005 107.695 94.6005C110.195 90.2005 112.995 86.0005 115.795 81.8005C119.895 75.8005 125.895 77.0005 129.695 81.1005C134.495 86.1005 136.895 92.5005 137.995 99.1005C138.895 104.8 139.395 110.701 138.995 116.401C138.395 125.901 134.495 134.3 128.795 141.8C126.895 144.4 124.095 145.201 120.995 144.401C119.795 144.101 118.895 143.601 118.195 143.001C116.595 141.601 116.095 139.8 115.695 138.3C115.595 137.8 115.395 137.201 115.295 136.501C114.995 133.401 116.695 130.801 118.695 127.701C119.895 125.801 121.295 124.201 122.495 120.901C122.495 120.801 122.795 120.001 123.095 119.201C124.395 114.901 124.595 108.001 122.795 107.401C121.095 107.101 119.295 111.3 113.195 118.8Z" fill="#00E3E3"/>
<path d="M172.197 106.801C172.697 123.601 169.497 139.601 159.997 153.701C157.197 157.901 153.497 161.601 149.997 165.301C148.097 167.301 145.597 167.601 142.797 167.101C137.797 166.201 136.497 161.701 138.597 157.701C140.497 154.201 143.197 151.301 145.497 148.001C150.897 140.101 154.797 131.701 156.197 122.101C157.497 113.501 157.397 105.001 155.797 96.6008C153.397 84.5008 147.897 73.7009 139.997 64.1009C136.997 60.5009 136.897 55.4009 139.897 52.6009C142.797 49.8009 148.097 49.8009 150.997 53.3009C154.897 58.0009 158.597 62.9009 161.597 68.2009C168.397 80.3009 171.797 93.1009 172.197 106.801Z" fill="#00E3E3"/>
</svg>
